<?xml version="1.0" standalone="no"?>
<!DOCTYPE svg PUBLIC "-//W3C//DTD SVG 20010904//EN"
 "http://www.w3.org/TR/2001/REC-SVG-20010904/DTD/svg10.dtd">
<svg version="1.0" xmlns="http://www.w3.org/2000/svg"
 width="400.000000pt" height="400.000000pt" viewBox="0 0 400.000000 400.000000"
 preserveAspectRatio="xMidYMid meet">
<metadata>
Created by potrace 1.14, written by Peter Selinger 2001-2017
</metadata>
<g transform="translate(0.000000,400.000000) scale(0.100000,-0.100000)"
fill="#000000" stroke="none">
<path d="M1775 3898 c-318 -36 -644 -166 -915 -367 -92 -68 -263 -232 -340
-326 -131 -160 -262 -394 -329 -586 -111 -323 -131 -694 -55 -1038 105 -472
399 -897 814 -1175 103 -69 313 -174 431 -215 323 -111 694 -131 1038 -55 279
62 562 200 786 384 94 77 258 248 326 340 336 454 454 1009 333 1559 -34 154
-73 261 -149 416 -106 216 -216 366 -396 540 -367 354 -829 539 -1336 534 -70
-1 -164 -6 -208 -11z"/>
</g>
</svg>
